<svg width="400" height="300" viewBox="0 0 400 300" fill="none" xmlns="http://www.w3.org/2000/svg" role="img" aria-label="Scoped credentials and kill-switch">
  <rect width="400" height="300" fill="#18181b"/>
  <!-- collar / leash ring -->
  <circle cx="130" cy="120" r="52" fill="none" stroke="#3f3f46" stroke-width="10"/>
  <circle cx="130" cy="120" r="52" fill="none" stroke="#10b981" stroke-width="10" stroke-dasharray="60 250" stroke-linecap="round"/>
  <!-- D-ring -->
  <circle cx="130" cy="68" r="9" fill="none" stroke="#f6f7ff" stroke-width="3"/>
  <!-- leash line -->
  <path d="M130 59 C 130 30, 240 30, 250 60" stroke="#3f3f46" stroke-width="3" fill="none"/>
  <!-- key -->
  <g transform="translate(250 70)">
    <circle cx="0" cy="0" r="14" fill="none" stroke="#10b981" stroke-width="3"/>
    <circle cx="0" cy="0" r="4" fill="#18181b" stroke="#10b981" stroke-width="2"/>
    <rect x="12" y="-3" width="46" height="6" rx="2" fill="#10b981"/>
    <rect x="46" y="3" width="6" height="10" fill="#10b981"/>
    <rect x="34" y="3" width="6" height="8" fill="#10b981"/>
  </g>
  <!-- scoped permission lines -->
  <g font-family="monospace" font-size="12" fill="#6b7280">
    <rect x="70" y="200" width="14" height="14" rx="3" fill="none" stroke="#10b981" stroke-width="2"/>
    <path d="M73 207 l3 4 l5 -7" stroke="#10b981" stroke-width="2" fill="none"/>
    <text x="94" y="211">pay:lightning</text>
    <rect x="70" y="224" width="14" height="14" rx="3" fill="none" stroke="#10b981" stroke-width="2"/>
    <path d="M73 231 l3 4 l5 -7" stroke="#10b981" stroke-width="2" fill="none"/>
    <text x="94" y="235">read:audit</text>
  </g>
  <!-- kill switch toggle -->
  <g transform="translate(250 210)">
    <rect x="0" y="0" width="80" height="34" rx="17" fill="#000000" stroke="#10b981" stroke-width="2"/>
    <circle cx="59" cy="17" r="12" fill="#10b981"/>
    <text x="0" y="-8" fill="#6b7280" font-family="monospace" font-size="11">KILL-SWITCH</text>
  </g>
</svg>
